<svg width="32" height="32" viewBox="0 0 32 32" fill="none" xmlns="http://www.w3.org/2000/svg">
<g >
<path d="M26.268 4.57091H26.1785L26.2068 4.2654C26.2074 4.25873 26.208 4.25205 26.2084 4.24538C26.2965 3.00744 25.8964 1.78253 25.1382 0.968735C24.5562 0.343994 23.803 0 23.0173 0H23.0162L8.7232 0.00573843C7.93728 0.0060503 7.18374 0.350543 6.60135 0.975721C5.84307 1.78983 5.44256 3.01474 5.53001 4.25243C5.53051 4.2591 5.53107 4.26578 5.53163 4.27245L5.55983 4.57815C4.39262 4.66666 3.46973 5.64394 3.46973 6.83341V8.22018C3.46973 9.46773 4.48468 10.4827 5.73223 10.4827H6.1046L8.01151 31.1503C8.05592 31.6317 8.45979 32 8.94319 32L22.7832 31.994C23.2663 31.9938 23.6698 31.6258 23.7144 31.1448L25.6302 10.4827H26.268C27.5156 10.4827 28.5305 9.46779 28.5305 8.22024V6.83348C28.5305 5.58587 27.5156 4.57091 26.268 4.57091ZM7.97059 2.25109C8.12952 2.08049 8.38925 1.87703 8.72389 1.8769L23.017 1.87123C23.3511 1.87123 23.6106 2.07407 23.7692 2.24429C24.178 2.68303 24.3921 3.37732 24.3426 4.10317L24.2992 4.57091H7.43841L7.396 4.11115C7.34691 3.38518 7.56142 2.69045 7.97059 2.25109ZM22.5846 23.0619H9.14448L8.40129 15.0073H23.3315L22.5846 23.0619ZM9.79647 30.1284L9.31713 24.9331H22.4112L21.9299 30.1232L9.79647 30.1284ZM23.505 13.1361H8.22863L7.98382 10.4827H23.751L23.505 13.1361ZM26.6593 8.22024C26.6593 8.436 26.4838 8.61152 26.268 8.61152H5.73229C5.51654 8.61152 5.34102 8.436 5.34102 8.22024V6.83348C5.34102 6.61772 5.51654 6.4422 5.73229 6.4422H26.268C26.4837 6.4422 26.6592 6.61772 26.6592 6.83348L26.6593 8.22024Z" fill="#3D7606"/>
</g>
<defs>
<clipPath>
<rect width="32" height="32" fill="white"/>
</clipPath>
</defs>
</svg>
