<?xml version="1.0" encoding="utf-8"?>
<!-- Generator: Adobe Illustrator 16.0.0, SVG Export Plug-In . SVG Version: 6.00 Build 0)  -->
<!DOCTYPE svg PUBLIC "-//W3C//DTD SVG 1.1//EN" "http://www.w3.org/Graphics/SVG/1.1/DTD/svg11.dtd">
<svg version="1.1" id="icon" xmlns="http://www.w3.org/2000/svg" xmlns:xlink="http://www.w3.org/1999/xlink" x="0px" y="0px"
	 width="14.172px" height="22.676px" viewBox="0 0 14.172 22.676" enable-background="new 0 0 14.172 22.676" xml:space="preserve">
<g>
	<path fill="#FFFFFF" d="M10.96,12.953c-0.978-2.063-0.55-3.319-0.356-3.718c-0.295,0.254-1.427,1.282-1.771,2.242
		c-0.215,0.607-0.688,0.659-1.009,0.509c-0.288-0.135-0.436-0.432-0.39-0.762c0.122-0.911,0.846-3.16-1.825-6.848
		c0,0,1.18,3.383-1.681,6.979c-0.612,0.739-0.996,1.668-0.996,2.706c0,2.342,1.898,4.241,4.243,4.241c1.436,0,2.67-0.69,3.422-1.758
		C11.089,15.643,11.562,14.239,10.96,12.953z"/>
</g>
</svg>
