<svg width="16" height="16" viewBox="0 0 16 16" fill="none" xmlns="http://www.w3.org/2000/svg">
<path d="M8.00034 0C5.05959 0 2.66699 2.39259 2.66699 5.33334C2.66699 6.21616 2.88771 7.09147 3.3073 7.86784L7.70868 15.8281C7.76727 15.9342 7.87893 16 8.00034 16C8.12174 16 8.2334 15.9342 8.29199 15.8281L12.695 7.86522C13.113 7.09147 13.3337 6.21613 13.3337 5.33331C13.3337 2.39259 10.9411 0 8.00034 0ZM8.00034 8C6.52996 8 5.33368 6.80372 5.33368 5.33334C5.33368 3.86297 6.52996 2.66669 8.00034 2.66669C9.47071 2.66669 10.667 3.86297 10.667 5.33334C10.667 6.80372 9.47071 8 8.00034 8Z" fill="white"/>
</svg>
