<svg width="24" height="24" viewBox="0 0 24 24" fill="none" xmlns="http://www.w3.org/2000/svg">
<path d="M17.3767 0H6.62299C2.97108 0 0 2.97122 0 6.62313V17.3769C0 21.0289 2.97108 24 6.62299 24H17.3767C21.0289 24 24 21.0288 24 17.3769V6.62313C24.0001 2.97122 21.0289 0 17.3767 0ZM21.8707 17.3769C21.8707 19.8548 19.8548 21.8706 17.3769 21.8706H6.62299C4.14522 21.8707 2.1294 19.8548 2.1294 17.3769V6.62313C2.1294 4.14537 4.14522 2.1294 6.62299 2.1294H17.3767C19.8546 2.1294 21.8706 4.14537 21.8706 6.62313V17.3769H21.8707Z" fill="#242424"/>
<path d="M12.0001 5.81641C8.5901 5.81641 5.81592 8.59058 5.81592 12.0006C5.81592 15.4105 8.5901 18.1845 12.0001 18.1845C15.4101 18.1845 18.1843 15.4105 18.1843 12.0006C18.1843 8.59058 15.4101 5.81641 12.0001 5.81641ZM12.0001 16.055C9.76439 16.055 7.94531 14.2362 7.94531 12.0005C7.94531 9.76459 9.76425 7.94566 12.0001 7.94566C14.236 7.94566 16.0549 9.76459 16.0549 12.0005C16.0549 14.2362 14.2358 16.055 12.0001 16.055Z" fill="#242424"/>
<path d="M18.4434 4.01074C18.0331 4.01074 17.6301 4.17684 17.3404 4.46785C17.0492 4.75745 16.8818 5.16062 16.8818 5.5723C16.8818 5.98271 17.0493 6.38573 17.3404 6.67675C17.63 6.96634 18.0331 7.13386 18.4434 7.13386C18.8551 7.13386 19.2568 6.96634 19.5478 6.67675C19.8389 6.38573 20.005 5.98256 20.005 5.5723C20.005 5.16062 19.8389 4.75745 19.5478 4.46785C19.2582 4.17684 18.8551 4.01074 18.4434 4.01074Z" fill="#242424"/>
</svg>
