<?xml version="1.0" encoding="utf-8"?>
<!-- Generator: Adobe Illustrator 16.0.0, SVG Export Plug-In . SVG Version: 6.00 Build 0)  -->
<!DOCTYPE svg PUBLIC "-//W3C//DTD SVG 1.1//EN" "http://www.w3.org/Graphics/SVG/1.1/DTD/svg11.dtd">
<svg version="1.1" id="design" xmlns="http://www.w3.org/2000/svg" xmlns:xlink="http://www.w3.org/1999/xlink" x="0px" y="0px"
	 width="315.416px" height="42px" viewBox="0 0 315.416 42" enable-background="new 0 0 315.416 42" xml:space="preserve">
<g enable-background="new    ">
	<path fill="#FFFFFF" d="M75.818,39.609h-3.562h-3.562V1.056h4.962h4.988L88.9,30.348h-0.016L99.077,1.056h4.963h4.986v38.553
		h-3.562h-3.562V10.345h0.01L91.723,39.609h-2.851h-2.851L75.801,10.421h0.018V39.609z"/>
	<path fill="#FFFFFF" d="M128.469,39.609V1.056h20.738v3.309v3.334h-13.613v9.491h12.979v3.309v3.334h-12.979v9.136h13.613v3.309
		v3.334h-20.738V39.609z"/>
	<path fill="#FFFFFF" d="M176.131,39.609h-3.562h-3.562V1.056h4.098h4.098l16.031,28.17V1.056h3.562h3.562v38.553h-3.919h-3.943
		L176.131,11.21V39.609z"/>
</g>
<g enable-background="new    ">
	<path fill="#FFFFFF" d="M249.129,25.182c0,4.868-1.19,8.617-3.574,11.248c-2.385,2.629-5.789,3.943-10.218,3.943
		c-4.411,0-7.816-1.314-10.218-3.943c-2.401-2.631-3.602-6.38-3.602-11.248V1.056h3.562h3.562v24.456
		c0,2.748,0.556,4.807,1.667,6.172c1.11,1.364,2.787,2.047,5.025,2.047c2.223,0,3.89-0.683,5-2.047
		c1.11-1.365,1.667-3.424,1.667-6.172V1.056h3.562h3.562v24.125H249.129L249.129,25.182z"/>
</g>
<g>
	<g>
		<line fill="#FFFFFF" x1="47.18" y1="24.423" x2="40.331" y2="17.577"/>
		
			<rect x="38.911" y="19.91" transform="matrix(0.7072 0.707 -0.707 0.7072 27.6566 -24.7843)" fill="#FFFFFF" width="9.684" height="2.182"/>
	</g>
	<g>
		<line fill="#FFFFFF" x1="39.917" y1="24.423" x2="33.072" y2="17.577"/>
		
			<rect x="31.653" y="19.91" transform="matrix(0.7072 0.707 -0.707 0.7072 25.5339 -19.6531)" fill="#FFFFFF" width="9.682" height="2.181"/>
	</g>
	<g>
		<line fill="#FFFFFF" x1="32.655" y1="24.423" x2="25.807" y2="17.577"/>
		
			<rect x="24.389" y="19.909" transform="matrix(0.7072 0.707 -0.707 0.7072 23.4047 -14.5177)" fill="#FFFFFF" width="9.684" height="2.183"/>
	</g>
	<g>
		<line fill="#FFFFFF" x1="25.393" y1="24.423" x2="18.545" y2="17.577"/>
		
			<rect x="17.128" y="19.91" transform="matrix(0.7072 0.707 -0.707 0.7072 21.2797 -9.3835)" fill="#FFFFFF" width="9.683" height="2.181"/>
	</g>
	<g>
		<line fill="#FFFFFF" x1="18.132" y1="24.423" x2="11.282" y2="17.577"/>
		
			<rect x="9.865" y="19.908" transform="matrix(0.7073 0.7069 -0.7069 0.7073 19.1489 -4.2501)" fill="#FFFFFF" width="9.684" height="2.182"/>
	</g>
	<g>
		<line fill="#FFFFFF" x1="10.869" y1="24.423" x2="4.021" y2="17.577"/>
		
			<rect x="2.604" y="19.909" transform="matrix(0.7072 0.7071 -0.7071 0.7072 17.0287 0.8853)" fill="#FFFFFF" width="9.683" height="2.182"/>
	</g>
</g>
<g>
	<g>
		<line fill="#FFFFFF" x1="312.396" y1="24.423" x2="305.547" y2="17.577"/>
		
			<rect x="304.138" y="19.901" transform="matrix(0.7073 0.7069 -0.7069 0.7073 105.2757 -212.2753)" fill="#FFFFFF" width="9.684" height="2.183"/>
	</g>
	<g>
		<line fill="#FFFFFF" x1="305.133" y1="24.423" x2="298.287" y2="17.577"/>
		
			<rect x="296.863" y="19.886" transform="matrix(0.707 0.7072 -0.7072 0.707 103.2243 -207.2141)" fill="#FFFFFF" width="9.682" height="2.182"/>
	</g>
	<g>
		<line fill="#FFFFFF" x1="297.871" y1="24.423" x2="291.021" y2="17.577"/>
		
			<rect x="289.604" y="19.907" transform="matrix(0.7073 0.7069 -0.7069 0.7073 101.0338 -202.0058)" fill="#FFFFFF" width="9.683" height="2.183"/>
	</g>
	<g>
		<line fill="#FFFFFF" x1="290.607" y1="24.423" x2="283.76" y2="17.577"/>
		
			<rect x="282.344" y="19.909" transform="matrix(0.7072 0.707 -0.707 0.7072 98.9404 -196.8999)" fill="#FFFFFF" width="9.683" height="2.182"/>
	</g>
	<g>
		<line fill="#FFFFFF" x1="283.348" y1="24.423" x2="276.498" y2="17.577"/>
		
			<rect x="275.088" y="19.901" transform="matrix(0.7073 0.7069 -0.7069 0.7073 96.7733 -191.7394)" fill="#FFFFFF" width="9.684" height="2.184"/>
	</g>
	<g>
		<line fill="#FFFFFF" x1="276.084" y1="24.423" x2="269.236" y2="17.577"/>
		
			<rect x="267.819" y="19.911" transform="matrix(0.7072 0.7071 -0.7071 0.7072 94.6955 -186.6363)" fill="#FFFFFF" width="9.683" height="2.181"/>
	</g>
</g>
</svg>
